<?xml version="1.0" standalone="no"?>
<!DOCTYPE svg PUBLIC "-//W3C//DTD SVG 20010904//EN"
 "http://www.w3.org/TR/2001/REC-SVG-20010904/DTD/svg10.dtd">
<svg version="1.0" xmlns="http://www.w3.org/2000/svg"
 width="512.000000pt" height="512.000000pt" viewBox="0 0 512.000000 512.000000"
 preserveAspectRatio="xMidYMid meet">
<metadata>
Created by potrace 1.14, written by Peter Selinger 2001-2017
</metadata>
<g transform="translate(0.000000,512.000000) scale(0.100000,-0.100000)"
fill="#000000" stroke="none">
<path d="M1022 3233 c4 -857 4 -869 26 -971 82 -375 262 -668 563 -916 12 -10
66 -47 118 -80 157 -101 335 -175 509 -211 117 -25 116 -25 282 -30 265 -7
491 41 715 152 325 162 561 402 716 727 67 140 98 239 136 431 3 17 8 420 10
898 l4 867 -1541 0 -1541 0 3 -867z"/>
</g>
</svg>
