<svg width="20" height="20" viewBox="0 0 20 20" fill="none" xmlns="http://www.w3.org/2000/svg">
<path d="M17.4987 2.5H2.4987C1.5737 2.5 0.832031 3.24167 0.832031 4.16667V14.1667C0.832031 14.6087 1.00763 15.0326 1.32019 15.3452C1.63275 15.6577 2.05667 15.8333 2.4987 15.8333H6.66536V17.5H13.332V15.8333H17.4987C17.9407 15.8333 18.3646 15.6577 18.6772 15.3452C18.9898 15.0326 19.1654 14.6087 19.1654 14.1667V4.16667C19.1654 3.72464 18.9898 3.30072 18.6772 2.98816C18.3646 2.67559 17.9407 2.5 17.4987 2.5ZM17.4987 14.1667H2.4987V4.16667H17.4987M13.332 9.16667L7.4987 12.5V5.83333" fill="white"/>
</svg>
