<svg width="1864" height="447" viewBox="0 0 1864 447" fill="none" xmlns="http://www.w3.org/2000/svg">
<g clip-path="url(#clip0_28_88)">
<path d="M1040.2 224.501C1040.2 347.901 939.8 446.501 816.3 446.501H736.1V378.801H816.3C902.4 378.801 972.5 310.701 972.5 224.501C972.5 138.301 902.5 68.3016 816.3 68.3016H736V0.601562H816.3C939.8 0.601562 1040.2 101.001 1040.2 224.501ZM736 218.301C736 199.801 751 184.701 769.6 184.701C788.2 184.701 803.2 199.701 803.2 218.301C803.2 236.901 788.2 251.901 769.6 251.901C751 251.901 736 236.901 736 218.301Z" fill="#0597B1"/>
<path d="M1235.5 288.701L1198.8 377.201L1043.1 0.601562H1116.5L1235.6 288.601L1235.5 288.701ZM1473.5 0.601562L1415.2 141.401H1415L1288.2 446.501H1227.6L1221.2 431.001L1257.9 342.501C1257.9 342.601 1344.6 134.001 1344.6 134.001L1400.1 0.601562H1473.5ZM1224.7 34.2016C1224.7 15.7016 1239.7 0.601562 1258.3 0.601562C1276.9 0.601562 1291.9 15.6016 1291.9 34.2016C1291.9 52.8016 1276.9 67.8016 1258.3 67.8016C1239.7 67.8016 1224.7 52.8016 1224.7 34.2016Z" fill="#0597B1"/>
<path d="M1822.6 223.199C1848 246.699 1864 280.299 1864 317.799C1864 387.199 1809.2 443.699 1740.8 446.199H1638.8C1570.5 443.699 1515.6 387.199 1515.6 317.799C1515.6 248.399 1531.6 246.799 1557 223.199C1531.6 199.699 1515.6 166.099 1515.6 128.599C1515.6 59.1992 1570.4 2.69922 1638.8 0.199219H1740.8C1809.1 2.69922 1864 59.1992 1864 128.599C1864 197.999 1847.9 199.599 1822.6 223.199ZM1710.5 257.299V189.099H1736.3C1769.4 189.099 1796.3 161.999 1796.3 128.599C1796.3 95.1992 1769.4 68.0992 1736.3 68.0992H1643.5C1610.4 68.0992 1583.5 95.1992 1583.5 128.599C1583.5 161.999 1610.4 189.099 1643.5 189.099H1669.3V257.299H1643.5C1610.4 257.299 1583.5 284.399 1583.5 317.799C1583.5 351.199 1610.4 378.299 1643.5 378.299H1736.3C1769.4 378.299 1796.3 351.199 1796.3 317.799C1796.3 284.399 1769.4 257.299 1736.3 257.299H1710.5ZM1689.9 161.999C1671.4 161.999 1656.3 146.899 1656.3 128.299C1656.3 109.699 1671.3 94.5992 1689.9 94.5992C1708.5 94.5992 1723.5 109.699 1723.5 128.299C1723.5 146.899 1708.5 161.999 1689.9 161.999ZM1656.3 317.199C1656.3 298.599 1671.3 283.499 1689.9 283.499C1708.5 283.499 1723.5 298.599 1723.5 317.199C1723.5 335.799 1708.5 350.899 1689.9 350.899C1671.3 350.899 1656.3 335.799 1656.3 317.199Z" fill="#0597B1"/>
<path d="M623.801 0.398993C617.201 0.398993 610.401 1.099 603.301 2.599C590.801 5.299 579.201 8.89901 568.601 13.199C561.801 15.999 553.101 20.199 542.501 25.699C500.801 47.399 461.001 72.199 425.401 101.599C414.001 110.999 403.101 121.799 392.701 133.799C371.201 158.699 353.401 186.399 339.301 216.899C339.201 217.299 338.501 217.199 338.501 216.699C338.501 212.999 337.301 209.399 335.301 206.299C335.101 205.999 335.201 205.599 335.501 205.299C346.901 197.899 347.201 183.199 335.901 175.599C335.201 175.099 334.901 174.299 335.001 173.399C338.901 153.299 344.601 133.199 352.001 112.899C353.301 109.499 354.801 106.099 356.501 102.699C357.801 100.099 359.401 96.799 361.501 92.699C364.101 87.399 368.101 81.399 373.501 74.799C376.001 71.699 378.901 69.899 382.801 69.899C386.901 69.799 392.801 70.099 393.701 65.899C394.501 61.799 393.001 59.399 389.101 58.499C384.301 57.499 376.501 63.299 373.101 66.699C367.001 72.799 361.701 80.099 357.101 88.299C352.401 96.999 348.601 104.999 345.901 112.399C338.501 132.299 333.001 151.699 329.501 170.599C329.501 171.099 329.301 171.399 329.101 171.799C328.901 171.399 328.701 171.099 328.701 170.599C325.201 151.699 319.701 132.299 312.301 112.399C309.601 104.999 305.801 96.999 301.101 88.299C296.501 79.999 291.201 72.799 285.101 66.699C279.001 60.599 273.901 57.499 269.101 58.499C265.201 59.299 263.701 61.799 264.501 65.899C265.401 70.199 271.301 69.799 275.401 69.899C279.301 69.899 282.201 71.699 284.701 74.799C290.101 81.499 294.101 87.399 296.701 92.699C298.801 96.799 300.401 100.099 301.701 102.699C303.401 106.099 304.901 109.499 306.201 112.899C313.601 133.099 319.301 153.299 323.201 173.399C323.301 174.299 323.001 175.099 322.301 175.599C311.001 183.099 311.301 197.899 322.701 205.299C323.101 205.499 323.201 205.999 322.901 206.299C320.901 209.499 319.801 212.999 319.701 216.699C319.701 217.199 319.001 217.299 318.901 216.899C304.801 186.399 287.001 158.699 265.501 133.799C255.101 121.799 244.201 110.999 232.801 101.599C197.201 72.099 157.401 47.399 115.701 25.699C105.101 20.199 96.4009 16.099 89.6009 13.199C79.0009 8.89901 67.5009 5.299 54.9009 2.599C47.8009 1.099 41.0009 0.298993 34.4009 0.398993C23.4009 0.398993 -0.599075 1.89899 0.100925 17.399C0.100925 20.699 0.800924 23.399 2.10092 25.699C9.50093 39.299 18.1009 54.699 27.7009 71.999C34.1009 83.299 41.1009 93.999 46.2009 106.099C51.3009 118.199 55.3009 130.699 58.5009 143.399C64.9009 168.699 69.0009 192.199 85.7009 211.599C105.601 234.799 135.901 244.399 166.001 243.599C145.301 248.699 123.701 256.799 109.901 273.399C105.301 278.899 101.801 285.199 99.4009 291.899C88.2009 323.399 92.2009 359.599 107.101 389.199C116.101 407.299 129.801 424.399 147.601 434.299C168.101 445.799 193.001 448.899 216.001 445.099C240.901 440.999 258.501 424.599 274.301 405.399C297.301 377.399 306.501 339.999 321.201 306.999C321.601 314.999 323.801 345.899 329.301 351.999C334.901 345.899 337.001 314.999 337.401 307.099C352.101 339.999 361.301 377.399 384.301 405.399C400.101 424.599 417.701 440.899 442.601 445.099C465.601 448.899 490.501 445.799 511.001 434.299C528.801 424.299 542.501 407.199 551.501 389.199C566.301 359.599 570.401 323.399 559.201 291.899C556.801 285.099 553.301 278.899 548.701 273.399C534.901 256.799 513.301 248.699 492.601 243.599C522.701 244.399 553.001 234.899 572.901 211.599C589.601 192.199 593.701 168.699 600.101 143.399C603.301 130.699 607.301 118.199 612.401 106.099C617.501 93.999 624.401 83.399 630.901 71.999C640.601 54.699 649.101 39.299 656.501 25.699C657.701 23.499 658.401 20.699 658.501 17.399C659.201 1.89899 635.201 0.498993 624.201 0.398993H623.801ZM71.6009 66.199C69.7009 67.599 67.3009 68.399 64.7009 68.099C60.4009 67.599 57.0009 64.099 56.5009 59.799C55.8009 54.099 60.3009 49.299 65.9009 49.299C71.5009 49.299 74.8009 53.099 75.3009 57.899L155.101 88.799C156.501 89.299 157.401 90.699 157.401 92.199V113.599C157.401 116.199 155.201 118.299 152.501 118.199C150.101 118.099 148.201 115.899 148.201 113.499V95.999L71.6009 66.299V66.199ZM161.901 169.499H138.201C137.401 170.999 136.101 172.299 134.601 173.199V181.899C137.601 183.599 139.601 186.899 139.401 190.599C139.201 195.399 135.201 199.299 130.401 199.599C125.001 199.899 120.501 195.599 120.501 190.099C120.501 184.599 122.501 183.399 125.301 181.799V173.099C122.101 171.299 120.001 167.699 120.501 163.699C121.001 159.399 124.501 155.799 128.801 155.399C132.801 154.899 136.401 156.999 138.101 160.199H164.101C165.001 160.199 166.001 160.599 166.701 161.299L187.501 182.099H245.501C248.201 182.099 250.301 184.299 250.101 186.999C250.001 189.399 247.801 191.299 245.401 191.299H185.301C184.301 191.299 183.301 190.899 182.701 190.199L161.901 169.499ZM252.701 215.799C255.201 215.799 257.301 217.799 257.301 220.399C257.301 222.999 255.201 224.999 252.701 224.999H191.901C190.301 227.899 187.201 229.799 183.601 229.799C178.401 229.799 174.201 225.599 174.201 220.299C174.201 214.999 178.401 210.899 183.601 210.899C188.801 210.899 190.301 212.799 191.901 215.699H252.701V215.799ZM140.501 288.999C140.701 284.199 144.701 280.299 149.501 279.999C153.201 279.799 156.501 281.799 158.201 284.799H165.801L195.001 255.599C195.701 254.899 196.601 254.499 197.601 254.499H267.501C270.201 254.499 272.301 256.699 272.101 259.399C272.001 261.799 269.801 263.699 267.401 263.699H199.901L170.701 292.899C170.001 293.599 169.101 293.999 168.101 293.999H158.201C156.601 296.899 153.501 298.799 149.901 298.799C144.501 298.799 140.201 294.299 140.501 288.899V288.999ZM147.401 348.099C147.201 342.699 151.501 338.199 156.901 338.199C162.301 338.199 159.201 338.399 160.301 338.899L182.101 320.899L186.501 317.299L196.601 308.899L204.401 302.499L215.801 293.099V280.099C215.801 278.799 216.301 277.699 217.201 276.799C218.001 275.999 219.201 275.499 220.501 275.499C221.801 275.499 223.801 276.499 224.601 277.999C224.901 278.599 225.101 279.399 225.101 280.099V295.599C225.101 296.699 224.601 297.699 223.801 298.399L216.001 304.899L189.401 326.999L186.901 328.999L166.501 345.899C166.501 346.499 166.601 346.999 166.601 347.599C166.601 352.999 162.101 357.299 156.701 356.999C151.901 356.799 147.901 352.899 147.701 347.999H147.401V348.099ZM238.501 388.299C238.501 389.399 238.001 390.399 237.201 391.099L220.501 404.799C220.501 405.299 220.601 405.899 220.601 406.499C220.601 411.899 216.101 416.199 210.701 415.899C205.901 415.699 201.901 411.699 201.701 406.899C201.501 401.499 205.801 396.999 211.201 396.999C216.601 396.999 213.601 397.199 214.701 397.699L229.401 385.599V361.499C229.401 358.899 231.601 356.699 234.301 356.899C236.701 356.899 238.601 359.199 238.601 361.699V388.199H238.501V388.299ZM297.601 270.499C297.901 270.799 298.101 271.099 298.101 271.499C298.501 274.899 295.401 276.999 292.701 278.899C292.201 279.199 292.401 280.099 293.101 280.099C296.401 280.399 297.901 281.999 297.601 284.899C297.401 286.899 296.101 287.999 294.601 289.699C293.501 290.899 293.001 292.699 293.301 294.299C293.601 295.999 294.101 297.699 294.601 299.299C295.001 300.499 295.401 301.799 295.301 303.099C295.001 306.299 292.801 309.499 290.701 311.799C288.601 314.099 285.701 315.599 282.701 316.499H282.001C276.701 316.699 271.501 316.899 266.301 317.099C265.201 317.099 264.101 317.099 263.101 317.099C262.001 317.099 260.901 317.399 259.901 317.799C258.901 318.199 257.901 318.799 257.101 319.499L218.501 352.999L203.701 365.899L169.401 395.699V399.599V400.299C169.401 400.299 169.401 400.499 169.301 400.699C168.101 403.999 165.101 406.499 161.501 406.799H160.501C159.901 406.799 159.201 406.799 158.601 406.599C158.301 406.599 157.901 406.399 157.601 406.299C157.501 406.299 157.401 406.299 157.301 406.299C157.001 406.299 156.701 406.099 156.501 405.899C155.801 405.599 155.201 405.199 154.601 404.699C154.301 404.399 153.901 404.099 153.601 403.799C153.501 403.599 153.301 403.499 153.201 403.299C153.101 403.299 153.001 402.999 152.901 402.899C152.201 401.899 151.701 400.799 151.401 399.599V399.299C151.401 398.899 151.301 398.599 151.201 398.199V395.199C151.501 394.099 151.901 392.999 152.501 392.099C152.501 392.099 152.601 391.899 152.701 391.799C152.701 391.799 152.801 391.599 152.901 391.499C152.901 391.499 153.001 391.299 153.101 391.199C153.201 390.999 153.401 390.899 153.501 390.799L153.701 390.599C153.901 390.399 154.201 390.099 154.501 389.899C154.501 389.899 154.701 389.899 154.801 389.699C154.801 389.699 155.001 389.699 155.101 389.499C155.401 389.299 155.701 389.099 156.001 388.999C156.001 388.999 156.201 388.999 156.301 388.799C157.101 388.399 158.001 388.099 159.001 387.999H161.701C162.401 387.999 163.001 388.299 163.601 388.499L165.301 386.999L167.501 385.099L168.101 384.599C170.101 382.899 172.101 381.199 174.101 379.399C177.701 376.299 181.401 373.099 185.001 369.899C189.101 366.399 193.101 362.799 197.201 359.299C199.101 357.699 200.901 356.099 202.701 354.499L210.001 348.199L217.401 341.799L235.301 326.299L236.701 325.099L250.501 313.099C250.601 313.099 250.701 312.899 250.901 312.699L252.901 310.999L256.601 307.799C256.801 307.599 257.001 307.499 257.201 307.399C258.801 305.999 260.601 304.999 262.501 304.299C264.101 303.699 265.701 303.099 267.201 302.299C274.701 298.399 279.901 291.599 282.401 283.599C283.601 279.599 284.201 275.499 284.501 271.399C285.101 261.099 282.201 251.099 278.601 241.499C276.301 235.399 273.201 229.499 271.301 223.299C269.401 216.999 268.301 210.299 267.301 203.699C266.001 195.299 264.701 187.399 261.501 179.999C255.601 166.599 244.501 154.299 231.001 146.299C223.801 142.099 215.701 138.899 207.301 138.499H135.701C134.701 138.499 133.801 138.099 133.101 137.499L108.901 114.399H104.201C102.501 117.399 99.2009 119.399 95.5009 119.199C95.0009 119.199 94.5009 119.199 94.0009 118.999C89.9009 118.099 86.7009 114.499 86.5009 110.199C86.3009 105.399 89.6009 101.399 94.1009 100.399C94.7009 100.299 95.3009 100.199 96.0009 100.199C99.6009 100.199 102.601 102.199 104.301 105.099H111.301C112.201 105.099 113.201 105.399 113.801 106.099L138.001 129.199H207.701C216.901 129.699 226.401 132.699 235.801 138.299C250.901 147.199 263.301 161.099 270.001 176.199C276.601 191.199 275.901 208.199 281.701 223.399C283.001 226.699 284.901 229.699 287.301 232.299C290.101 235.399 293.501 238.399 297.101 240.399C306.901 245.899 297.401 251.099 294.101 255.199C289.901 260.399 293.501 265.599 298.001 269.799L297.601 270.499ZM456.201 406.999C456.001 411.799 452.001 415.799 447.201 415.999C441.801 416.199 437.301 411.899 437.301 406.599C437.301 401.299 437.301 405.399 437.301 404.899L420.601 391.199C419.801 390.499 419.301 389.499 419.301 388.399V361.899C419.301 359.399 421.201 357.299 423.601 357.099C426.301 356.899 428.501 359.099 428.501 361.699V385.799L443.201 397.899C444.301 397.499 445.401 397.199 446.701 397.199C452.101 397.199 456.501 401.699 456.201 407.099V406.999ZM510.501 348.099C510.301 352.899 506.301 356.899 501.501 357.099C496.101 357.299 491.601 352.999 491.601 347.699C491.601 342.399 491.601 346.499 491.601 345.999L471.201 329.099L468.701 327.099L442.101 304.999L434.301 298.499C433.501 297.799 433.001 296.799 433.001 295.699V280.199C433.001 279.399 433.201 278.699 433.501 278.099C434.301 276.599 435.801 275.599 437.601 275.599C439.401 275.599 440.001 276.099 440.901 276.899C441.701 277.699 442.301 278.899 442.301 280.199V293.199L453.701 302.599L461.501 308.999L471.601 317.399L476.001 320.999L497.801 338.999C498.901 338.599 500.001 338.299 501.201 338.299C506.601 338.299 510.901 342.799 510.701 348.199H510.401L510.501 348.099ZM499.601 284.799C501.301 281.799 504.601 279.799 508.301 279.999C513.101 280.199 517.101 284.199 517.301 288.999C517.501 294.399 513.201 298.899 507.901 298.899C502.601 298.899 501.201 296.999 499.601 294.099H489.701C488.701 294.099 487.801 293.699 487.101 292.999L457.901 263.799H390.401C387.901 263.799 385.801 261.899 385.701 259.499C385.501 256.799 387.701 254.599 390.301 254.599H460.201C461.201 254.599 462.101 254.999 462.801 255.699L492.001 284.899H499.601V284.799ZM400.501 220.399C400.501 217.799 402.601 215.799 405.101 215.799H465.901C467.501 212.899 470.601 210.999 474.201 210.999C479.401 210.999 483.601 215.199 483.601 220.399C483.601 225.599 479.401 229.899 474.201 229.899C469.001 229.899 467.501 227.899 465.901 225.099H405.101C402.501 225.099 400.501 223.099 400.501 220.499V220.399ZM537.301 190.199C537.301 195.599 532.901 199.899 527.401 199.699C522.601 199.499 518.601 195.499 518.401 190.699C518.201 186.899 520.201 183.699 523.201 181.999V173.299C521.701 172.499 520.401 171.199 519.601 169.599H495.901L475.101 190.299C474.501 190.999 473.501 191.399 472.501 191.399H412.401C409.901 191.399 407.801 189.499 407.701 187.099C407.501 184.399 409.601 182.199 412.301 182.199H470.301L491.101 161.399C491.801 160.699 492.701 160.299 493.701 160.299H519.701C521.501 157.099 525.101 154.999 529.001 155.499C533.301 155.999 536.801 159.499 537.301 163.799C537.801 167.799 535.701 171.299 532.501 173.199V181.899C535.401 183.499 537.301 186.599 537.301 190.199ZM564.201 119.699C563.701 119.799 563.201 119.899 562.701 119.899C559.001 120.099 555.701 118.099 554.001 115.099H549.301L525.101 138.199C524.401 138.899 523.501 139.199 522.501 139.199H450.901C442.501 139.599 434.401 142.799 427.201 146.999C413.801 154.999 402.601 167.299 396.701 180.699C393.501 188.099 392.201 195.999 390.901 204.399C389.901 210.999 388.801 217.599 386.901 223.999C384.901 230.199 381.901 235.999 379.601 242.199C376.001 251.699 373.101 261.799 373.701 272.099C373.901 276.199 374.501 280.299 375.801 284.299C378.301 292.299 383.501 299.099 391.001 302.999C392.501 303.799 394.101 304.499 395.701 304.999C397.601 305.699 399.501 306.699 401.001 308.099C401.201 308.299 401.401 308.499 401.601 308.599L405.301 311.799L407.301 313.499C407.401 313.499 407.501 313.699 407.701 313.899L421.501 325.899L422.901 327.099L440.801 342.599L448.201 348.999L455.501 355.299C457.401 356.899 459.201 358.499 461.001 360.099C465.101 363.599 469.101 367.199 473.201 370.699C476.801 373.899 480.501 376.999 484.101 380.199C486.101 381.899 488.101 383.599 490.101 385.399L490.701 385.899L492.901 387.799L494.601 389.299C495.201 389.099 495.801 388.899 496.501 388.799H499.201C500.201 388.799 501.101 389.199 501.901 389.599C501.901 389.599 502.101 389.599 502.201 389.799C502.501 389.799 502.801 390.099 503.101 390.299C503.101 390.299 503.301 390.299 503.401 390.499C503.401 390.499 503.601 390.499 503.701 390.699C504.001 390.899 504.201 391.099 504.501 391.399L504.701 391.599L505.101 391.999C505.101 391.999 505.101 392.199 505.301 392.299C505.301 392.299 505.301 392.499 505.501 392.599C505.501 392.599 505.501 392.799 505.701 392.899C506.301 393.799 506.801 394.899 507.001 395.999V398.999C507.001 399.399 507.001 399.799 506.801 400.099V400.399C506.501 401.599 506.001 402.699 505.301 403.699C505.301 403.699 505.101 403.999 505.001 404.099C505.001 404.299 504.701 404.399 504.601 404.599C504.301 404.899 504.001 405.199 503.601 405.499C503.001 405.999 502.401 406.399 501.701 406.699C501.401 406.699 501.201 406.899 500.901 407.099C500.901 407.099 500.701 407.099 500.601 407.099C500.301 407.099 499.901 407.299 499.601 407.399C499.001 407.399 498.301 407.599 497.701 407.599C497.101 407.599 497.401 407.599 497.201 407.599H496.701C493.101 407.199 490.101 404.799 488.901 401.499C488.901 401.499 488.901 401.299 488.901 401.099V400.399V396.499L454.601 366.699L439.801 353.799L401.201 320.299C400.401 319.599 399.401 318.999 398.401 318.599C397.401 318.199 396.301 317.899 395.201 317.899C394.101 317.899 393.101 317.899 392.001 317.899C386.801 317.699 381.601 317.499 376.301 317.299H375.601C372.501 316.499 369.701 314.899 367.601 312.599C365.501 310.299 363.301 307.099 363.001 303.899C362.901 302.599 363.301 301.299 363.701 300.099C364.201 298.499 364.701 296.699 365.001 295.099C365.301 293.499 364.801 291.699 363.701 290.499C362.201 288.799 360.901 287.599 360.701 285.699C360.401 282.699 361.901 281.099 365.201 280.899C365.901 280.899 366.101 279.999 365.601 279.699C362.901 277.699 359.901 275.599 360.201 272.299C360.201 271.899 360.401 271.599 360.701 271.299C365.201 267.199 368.801 261.899 364.601 256.699C361.301 252.699 351.801 247.399 361.601 241.899C365.201 239.899 368.601 236.799 371.401 233.799C373.801 231.199 375.701 228.199 377.001 224.899C382.801 209.599 382.101 192.699 388.701 177.699C395.401 162.499 407.801 148.699 422.901 139.799C432.401 134.199 441.801 131.099 451.001 130.699H520.701L544.901 107.599C545.601 106.899 546.501 106.599 547.401 106.599H554.401C556.001 103.699 559.101 101.699 562.701 101.699C566.301 101.699 564.001 101.699 564.601 101.899C569.001 102.899 572.401 106.899 572.201 111.699C572.001 115.999 568.801 119.599 564.701 120.499L564.301 119.699H564.201ZM601.401 59.699C600.901 63.999 597.501 67.499 593.201 67.999C590.601 68.299 588.201 67.599 586.301 66.099L509.701 95.799V113.299C509.701 115.799 507.801 117.899 505.401 117.999C502.701 118.199 500.501 116.099 500.501 113.399V91.999C500.501 90.499 501.401 89.099 502.801 88.599L582.601 57.699C583.101 52.899 587.101 49.099 592.001 49.099C596.901 49.099 602.101 53.899 601.401 59.599V59.699Z" fill="#0597B1"/>
</g>
<defs>
<clipPath id="clip0_28_88">
<rect width="1864" height="447" fill="white"/>
</clipPath>
</defs>
</svg>
