<svg width="20" height="20" viewBox="0 0 20 20" fill="none" xmlns="http://www.w3.org/2000/svg">
<path d="M4.16667 3.33341V8.35425V8.33341V16.6667V3.33341ZM4.16667 18.3334C3.70833 18.3334 3.31611 18.1704 2.99 17.8442C2.66389 17.5181 2.50056 17.1256 2.5 16.6667V3.33341C2.5 2.87508 2.66333 2.48286 2.99 2.15675C3.31667 1.83064 3.70889 1.6673 4.16667 1.66675H10.8333L15.8333 6.66675V8.75008C15.5694 8.63897 15.2986 8.5523 15.0208 8.49008C14.7431 8.42786 14.4583 8.38258 14.1667 8.35425V7.50008H10V3.33341H4.16667V16.6667H9.1875C9.40972 17.0001 9.65972 17.3092 9.9375 17.5942C10.2153 17.8792 10.5208 18.1256 10.8542 18.3334H4.16667ZM13.75 15.8334C14.3333 15.8334 14.8264 15.632 15.2292 15.2292C15.6319 14.8265 15.8333 14.3334 15.8333 13.7501C15.8333 13.1667 15.6319 12.6737 15.2292 12.2709C14.8264 11.8681 14.3333 11.6667 13.75 11.6667C13.1667 11.6667 12.6736 11.8681 12.2708 12.2709C11.8681 12.6737 11.6667 13.1667 11.6667 13.7501C11.6667 14.3334 11.8681 14.8265 12.2708 15.2292C12.6736 15.632 13.1667 15.8334 13.75 15.8334ZM18 19.1667L15.75 16.9167C15.4583 17.1112 15.1425 17.257 14.8025 17.3542C14.4625 17.4515 14.1117 17.5001 13.75 17.5001C12.7083 17.5001 11.8231 17.1356 11.0942 16.4067C10.3653 15.6779 10.0006 14.7923 10 13.7501C9.99944 12.7079 10.3642 11.8226 11.0942 11.0942C11.8242 10.3659 12.7094 10.0012 13.75 10.0001C14.7906 9.99897 15.6761 10.3637 16.4067 11.0942C17.1372 11.8248 17.5017 12.7101 17.5 13.7501C17.5 14.1112 17.4514 14.462 17.3542 14.8026C17.2569 15.1431 17.1111 15.459 16.9167 15.7501L19.1667 18.0001L18 19.1667Z" fill="white"/>
<path d="M4.16667 3.33341V8.35425V8.33341V16.6667M4.16667 3.33341V16.6667M4.16667 3.33341V7.50008M4.16667 3.33341H10V7.50008H14.1667V8.35425C14.4583 8.38258 14.7431 8.42786 15.0208 8.49008C15.2986 8.5523 15.5694 8.63897 15.8333 8.75008V6.66675L10.8333 1.66675H4.16667C3.70889 1.6673 3.31667 1.83064 2.99 2.15675C2.66333 2.48286 2.5 2.87508 2.5 3.33341V16.6667C2.50056 17.1256 2.66389 17.5181 2.99 17.8442C3.31611 18.1704 3.70833 18.3334 4.16667 18.3334H10.8542C10.5208 18.1256 10.2153 17.8792 9.9375 17.5942C9.65972 17.3092 9.40972 17.0001 9.1875 16.6667H4.16667M13.75 15.8334C14.3333 15.8334 14.8264 15.632 15.2292 15.2292C15.6319 14.8265 15.8333 14.3334 15.8333 13.7501C15.8333 13.1667 15.6319 12.6737 15.2292 12.2709C14.8264 11.8681 14.3333 11.6667 13.75 11.6667C13.1667 11.6667 12.6736 11.8681 12.2708 12.2709C11.8681 12.6737 11.6667 13.1667 11.6667 13.7501C11.6667 14.3334 11.8681 14.8265 12.2708 15.2292C12.6736 15.632 13.1667 15.8334 13.75 15.8334ZM18 19.1667L15.75 16.9167C15.4583 17.1112 15.1425 17.257 14.8025 17.3542C14.4625 17.4515 14.1117 17.5001 13.75 17.5001C12.7083 17.5001 11.8231 17.1356 11.0942 16.4067C10.3653 15.6779 10.0006 14.7923 10 13.7501C9.99944 12.7079 10.3642 11.8226 11.0942 11.0942C11.8242 10.3659 12.7094 10.0012 13.75 10.0001C14.7906 9.99897 15.6761 10.3637 16.4067 11.0942C17.1372 11.8248 17.5017 12.7101 17.5 13.7501C17.5 14.1112 17.4514 14.462 17.3542 14.8026C17.2569 15.1431 17.1111 15.459 16.9167 15.7501L19.1667 18.0001L18 19.1667Z" stroke="white" stroke-width="0.1"/>
</svg>
