<svg width="24" height="24" viewBox="0 0 24 24" fill="none" xmlns="http://www.w3.org/2000/svg">
<path d="M13.9999 20C12.8999 20 11.9582 19.6083 11.1749 18.825C10.3915 18.0417 9.99987 17.1 9.99987 16C9.99987 14.9 10.3915 13.9583 11.1749 13.175C11.9582 12.3917 12.8999 12 13.9999 12C14.3832 12 14.7375 12.046 15.0629 12.138C15.3882 12.23 15.7005 12.3673 15.9999 12.55V5C15.9999 4.71667 16.0959 4.47933 16.2879 4.288C16.4799 4.09667 16.7172 4.00067 16.9999 4H20.9999C21.2832 4 21.5209 4.096 21.7129 4.288C21.9049 4.48 22.0005 4.71733 21.9999 5V6C21.9999 6.28333 21.9039 6.521 21.7119 6.713C21.5199 6.905 21.2825 7.00067 20.9999 7H17.9999V16C17.9999 17.1 17.6082 18.0417 16.8249 18.825C16.0415 19.6083 15.0999 20 13.9999 20ZM6.94987 8.925C6.14987 9.725 5.49987 10.6377 4.99987 11.663C4.49987 12.6883 4.1832 13.784 4.04987 14.95C4.01653 15.2333 3.9042 15.4793 3.71287 15.688C3.52153 15.8967 3.28387 16.0007 2.99987 16C2.71587 15.9993 2.47853 15.891 2.28787 15.675C2.0972 15.459 2.01787 15.209 2.04987 14.925C2.1832 13.475 2.5542 12.121 3.16287 10.863C3.77153 9.605 4.55887 8.49233 5.52487 7.525C6.49087 6.55767 7.60353 5.77 8.86287 5.162C10.1222 4.554 11.4762 4.18333 12.9249 4.05C13.2082 4.01667 13.4582 4.096 13.6749 4.288C13.8915 4.48 13.9999 4.71733 13.9999 5C13.9999 5.28267 13.8959 5.52033 13.6879 5.713C13.4799 5.90567 13.2339 6.018 12.9499 6.05C11.7832 6.18333 10.6915 6.496 9.67487 6.988C8.6582 7.48 7.74987 8.12567 6.94987 8.925ZM9.77487 11.75C9.34153 12.1833 8.97487 12.6793 8.67487 13.238C8.37487 13.7967 8.17487 14.3923 8.07487 15.025C8.02487 15.3083 7.9042 15.5417 7.71287 15.725C7.52153 15.9083 7.28387 16 6.99987 16C6.71587 16 6.48253 15.896 6.29987 15.688C6.1172 15.48 6.0422 15.234 6.07487 14.95C6.19153 14.05 6.44587 13.2127 6.83787 12.438C7.22987 11.6633 7.73387 10.9673 8.34987 10.35C8.96587 9.73267 9.66187 9.22867 10.4379 8.838C11.2139 8.44733 12.0512 8.193 12.9499 8.075C13.2332 8.04167 13.4792 8.11667 13.6879 8.3C13.8965 8.48333 14.0005 8.71667 13.9999 9C13.9992 9.28333 13.9075 9.521 13.7249 9.713C13.5422 9.905 13.3089 10.0257 13.0249 10.075C12.3915 10.175 11.7999 10.371 11.2499 10.663C10.6999 10.955 10.2082 11.3173 9.77487 11.75Z" fill="#1E2242"/>
</svg>
