<svg width="24" height="24" viewBox="0 0 24 24" fill="none" xmlns="http://www.w3.org/2000/svg">
<path d="M10.4758 22C10.0091 22 9.57178 21.9 9.16378 21.7C8.75578 21.5 8.40978 21.2167 8.12578 20.85L2.67578 13.925L3.15078 13.425C3.48411 13.075 3.88411 12.8667 4.35078 12.8C4.81745 12.7333 5.25078 12.825 5.65078 13.075L7.50078 14.2V6C7.50078 5.71667 7.59678 5.47933 7.78878 5.288C7.98078 5.09667 8.21811 5.00067 8.50078 5C8.78345 4.99933 9.02511 5.09533 9.22578 5.288C9.42645 5.48067 9.52645 5.718 9.52578 6V11H17.0008C17.8341 11 18.5424 11.2917 19.1258 11.875C19.7091 12.4583 20.0008 13.1667 20.0008 14V18C20.0008 19.1 19.6091 20.0417 18.8258 20.825C18.0424 21.6083 17.1008 22 16.0008 22H10.4758ZM4.17578 8.5C3.95911 8.13333 3.79245 7.73767 3.67578 7.313C3.55911 6.88833 3.50078 6.45067 3.50078 6C3.50078 4.61667 3.98845 3.43767 4.96378 2.463C5.93911 1.48833 7.11811 1.00067 8.50078 1C9.88345 0.999334 11.0628 1.487 12.0388 2.463C13.0148 3.439 13.5021 4.618 13.5008 6C13.5008 6.45 13.4424 6.88767 13.3258 7.313C13.2091 7.73833 13.0424 8.134 12.8258 8.5L11.1008 7.5C11.2341 7.26667 11.3341 7.02933 11.4008 6.788C11.4674 6.54667 11.5008 6.284 11.5008 6C11.5008 5.16667 11.2091 4.45833 10.6258 3.875C10.0424 3.29167 9.33411 3 8.50078 3C7.66745 3 6.95911 3.29167 6.37578 3.875C5.79245 4.45833 5.50078 5.16667 5.50078 6C5.50078 6.28333 5.53411 6.546 5.60078 6.788C5.66745 7.03 5.76745 7.26733 5.90078 7.5L4.17578 8.5Z" fill="#1E2242"/>
</svg>
