<svg width="194" height="40" viewBox="0 0 194 40" fill="none" xmlns="http://www.w3.org/2000/svg">
<g clip-path="url(#clip0_58_607)">
<path d="M39.3791 4.68046L35.5057 8.5488H31.6328C31.6328 8.5488 31.5874 8.50296 31.5416 8.45755C31.4961 8.4113 31.4453 8.36088 31.4453 8.36088V4.49296L35.3182 0.619629V4.49296C35.3182 4.49296 35.3182 4.58421 35.3182 4.68046C35.4095 4.68046 35.5057 4.68046 35.5057 4.68046H39.3791Z" fill="#8C52FF"/>
<path d="M31.5423 22.3252H24.6085C24.6085 20.4114 23.8323 18.6756 22.5781 17.4214L27.4765 12.5181C29.9894 15.031 31.5423 18.4931 31.5423 22.3252Z" fill="#D9D9D9"/>
<path d="M24.6071 22.3252H31.5409C31.5409 29.9902 25.328 36.1985 17.668 36.1985V29.2644C21.5005 29.2644 24.6071 26.1577 24.6071 22.3252Z" fill="#8C52FF"/>
<path d="M27.4751 12.5179L22.5767 17.4213C21.3176 16.1679 19.5867 15.3913 17.668 15.3913V8.45752C21.4955 8.45752 24.9676 10.0109 27.4751 12.5179Z" fill="#D9D9D9"/>
<path d="M17.6685 15.3911C19.5873 15.3911 21.3181 16.1678 22.5773 17.4211C23.8315 18.6753 24.6077 20.4111 24.6077 22.3249C24.6077 26.1574 21.501 29.264 17.6685 29.264C13.8415 29.264 10.7344 26.1574 10.7344 22.3249C10.7344 18.4974 13.8415 15.3911 17.6685 15.3911ZM18.694 21.2999C18.4298 21.0357 18.0698 20.8732 17.6685 20.8732C16.8669 20.8732 16.2173 21.5232 16.2173 22.3249C16.2173 23.1274 16.8669 23.7765 17.6685 23.7765C18.4706 23.7765 19.1202 23.1274 19.1202 22.3249C19.1202 21.924 18.9577 21.5586 18.694 21.2999Z" fill="#8C52FF"/>
<path d="M18.6954 21.3002C18.9592 21.559 19.1217 21.9244 19.1217 22.3252C19.1217 23.1277 18.4721 23.7769 17.67 23.7769C16.8683 23.7769 16.2188 23.1277 16.2188 22.3252C16.2188 21.5235 16.8683 20.8735 17.67 20.8735C18.0713 20.8735 18.4313 21.036 18.6954 21.3002Z" fill="white"/>
<path d="M17.6683 29.2644V36.1985C10.0087 36.1985 3.80078 29.9902 3.80078 22.3252H10.7341C10.7341 26.1577 13.8412 29.2644 17.6683 29.2644Z" fill="#D9D9D9"/>
<path d="M17.6683 8.45752V15.3913C13.8412 15.3913 10.7341 18.4975 10.7341 22.325H3.80078C3.80078 14.665 10.0087 8.45752 17.668 8.45752Z" fill="#8C52FF"/>
<path d="M18.695 21.5536C18.6304 21.5536 18.565 21.5286 18.5154 21.4795C18.4167 21.3799 18.4167 21.2195 18.5158 21.1203L31.3633 8.27781C31.4621 8.17823 31.6229 8.17823 31.7225 8.27781C31.8212 8.37656 31.8212 8.5374 31.7217 8.63698L18.8746 21.4795C18.825 21.5286 18.76 21.5536 18.695 21.5536Z" fill="white"/>
<mask id="mask0_58_607" style="mask-type:luminance" maskUnits="userSpaceOnUse" x="31" y="0" width="9" height="9">
<path d="M31.1914 0.00683594H39.9947V8.8535H31.1914V0.00683594Z" fill="white"/>
</mask>
<g mask="url(#mask0_58_607)">
<path d="M31.7428 8.29531H35.4049L38.7695 4.93531H35.0686V1.23281L31.7032 4.59865L31.7428 8.29531ZM35.6153 8.80281H31.532L31.1953 8.46698V4.38781L35.5761 0.0078125V4.4274H39.9966L35.6153 8.80281Z" fill="white"/>
</g>
<path d="M17.669 8.71146C10.1627 8.71146 4.05521 14.8181 4.05521 22.3252C4.05521 29.8344 10.1627 35.9444 17.669 35.9444C25.1785 35.9444 31.2885 29.8344 31.2885 22.3252C31.2885 18.6906 29.8706 15.2719 27.2965 12.6977C24.7256 10.1269 21.3065 8.71146 17.669 8.71146ZM17.669 36.4523C9.88188 36.4523 3.54688 30.1152 3.54688 22.3252C3.54688 14.5385 9.88188 8.20312 17.669 8.20312C21.4419 8.20312 24.9885 9.67229 27.6552 12.3385C30.3256 15.0085 31.796 18.5556 31.796 22.3252C31.796 30.1152 25.459 36.4523 17.669 36.4523Z" fill="white"/>
<path d="M17.668 15.6447C13.9851 15.6447 10.9884 18.6414 10.9884 22.3251C10.9884 26.0114 13.9851 29.0105 17.668 29.0105C21.3546 29.0105 24.3534 26.0114 24.3534 22.3251C24.3534 20.5405 23.6588 18.8635 22.3971 17.601C21.1305 16.3401 19.4509 15.6447 17.668 15.6447ZM17.668 29.518C13.7046 29.518 10.4805 26.2918 10.4805 22.3251C10.4805 18.3622 13.7046 15.1372 17.668 15.1372C19.5863 15.1372 21.393 15.8847 22.7555 17.2414C24.1134 18.5997 24.8609 20.4055 24.8609 22.3251C24.8609 26.2918 21.6346 29.518 17.668 29.518Z" fill="white"/>
<path d="M35.0908 22.5791H20.8987C20.7579 22.5791 20.6445 22.4654 20.6445 22.325C20.6445 22.185 20.7579 22.0708 20.8987 22.0708H35.0908C35.2316 22.0708 35.3445 22.185 35.3445 22.325C35.3445 22.4654 35.2316 22.5791 35.0908 22.5791Z" fill="white"/>
<path d="M14.4462 22.5791H0.25375C0.113333 22.5791 0 22.4654 0 22.325C0 22.185 0.113333 22.0708 0.25375 22.0708H14.4462C14.5867 22.0708 14.7004 22.185 14.7004 22.325C14.7004 22.4654 14.5867 22.5791 14.4462 22.5791Z" fill="white"/>
<path d="M17.6713 19.3557C17.5313 19.3557 17.418 19.2419 17.418 19.1019V4.90902C17.418 4.76902 17.5313 4.65527 17.6713 4.65527C17.8117 4.65527 17.9251 4.76902 17.9251 4.90902V19.1019C17.9251 19.2419 17.8117 19.3557 17.6713 19.3557Z" fill="white"/>
<path d="M17.6713 40.0006C17.5313 40.0006 17.418 39.8865 17.418 39.7465V25.5536C17.418 25.4136 17.5313 25.2998 17.6713 25.2998C17.8117 25.2998 17.9251 25.4136 17.9251 25.5536V39.7465C17.9251 39.8865 17.8117 40.0006 17.6713 40.0006Z" fill="white"/>
</g>
<text x="50" y="27" fill="white" font-family="Inter, system-ui, -apple-system, sans-serif" font-weight="800" font-size="21" letter-spacing="-0.5px">Nature AI</text>
<defs>
<clipPath id="clip0_58_607">
<rect width="40" height="40" fill="white"/>
</clipPath>
</defs>
</svg>
