<svg xmlns="http://www.w3.org/2000/svg" class="svg-sprite"><symbol class="svg-sprite" id="arrow-down" viewBox="0 0 12 12"><path d="M0 1.4L8.6 10H.7v2H12V.7h-2v7.9L1.4 0 0 1.4z" fill-rule="evenodd" clip-rule="evenodd"/></symbol><symbol class="svg-sprite" id="arrow" viewBox="0 0 20 20"><path fill-rule="evenodd" clip-rule="evenodd" d="M.4 2.6l13.8 13.8H1.5v3.2h18.1V1.5h-3.2v12.7L2.6.4.4 2.6z"/></symbol><symbol class="svg-sprite" id="chevron-down" viewBox="0 0 10 6"><path d="M1.145 0l3.71 3.71L8.565 0 9.71 1.145 4.855 6 0 1.145 1.145 0z" fill="#212121"/></symbol><symbol fill="none" class="svg-sprite" id="close" viewBox="0 0 14 14"><path d="M2.269.572L.572 2.269l4.56 4.56-4.496 4.498 1.612 1.612 4.497-4.497 4.56 4.56 1.698-1.696-4.561-4.561 4.497-4.497L11.327.635 6.83 5.133 2.269.572z" fill="#fff"/></symbol><symbol fill="none" class="svg-sprite" id="drag-arrows" viewBox="0 0 46 10"><path fill-rule="evenodd" clip-rule="evenodd" d="M14.167 5.625H2.153l3.174 3.5-.794.875L0 5l4.533-5 .794.875-3.174 3.5h12.014v1.25zM31 4.375h12.013L39.84.875 40.633 0l4.534 5-4.534 5-.793-.875 3.173-3.5H31v-1.25z" fill="#000"/></symbol><symbol fill="none" class="svg-sprite" id="drag-globe" viewBox="0 0 69 45"><path fill-rule="evenodd" clip-rule="evenodd" d="M66.205 13.61c-2.657-4.078-7.056-7.47-12.554-9.852C48.2 1.42 41.647 0 34.637 0h-.091c-9.484 0-18.052 2.475-24.329 6.461-3.115 2.017-5.635 4.445-7.422 7.149C1.008 16.314 0 19.338 0 22.5c0 3.162 1.008 6.186 2.795 8.89 2.657 4.078 7.056 7.47 12.554 9.852C20.847 43.625 27.444 45 34.5 45h.183c9.347-.046 17.869-2.474 24.054-6.461 3.116-2.017 5.681-4.4 7.468-7.149C67.992 28.686 69 25.662 69 22.5c0-3.162-1.008-6.186-2.795-8.89zm-8.293-5.774c2.52 1.65 4.628 3.529 6.231 5.59h-6.872c-1.237-2.566-3.024-4.903-5.177-6.873a24.756 24.756 0 00-4.536-3.254c3.894 1.1 7.376 2.658 10.354 4.537zM47.558 22.5a32.06 32.06 0 01-.87 7.424H22.312a32.008 32.008 0 01-.87-7.424c0-2.658.32-5.132.87-7.47h24.374c.55 2.292.87 4.812.87 7.47zm.366 9.027h7.56a21.595 21.595 0 01-4.49 5.729c-2.703 2.428-6.048 4.261-9.805 5.27 2.245-1.788 4.124-4.4 5.498-7.562.504-1.1.917-2.245 1.237-3.436zm-4.306 5.866c-1.192 1.879-2.612 3.391-4.17 4.4C37.89 42.8 36.241 43.35 34.5 43.35h-.092c-1.695 0-3.344-.55-4.856-1.558-2.337-1.512-4.353-4.17-5.819-7.515a25.101 25.101 0 01-1.008-2.795h23.55c-.687 2.245-1.558 4.216-2.657 5.911zm-15.9 5.087a23.665 23.665 0 01-9.621-5.224 20.886 20.886 0 01-4.49-5.729h7.468c.733 2.52 1.74 4.812 2.978 6.737 1.054 1.65 2.29 3.116 3.665 4.216zm-4.994-29.053c.687-2.2 1.558-4.17 2.612-5.82 1.19-1.879 2.611-3.391 4.169-4.4C31.018 2.2 32.667 1.65 34.362 1.65h.092c1.741 0 3.39.55 4.948 1.558 2.337 1.512 4.353 4.17 5.82 7.515.366.87.686 1.787 1.007 2.75H22.725v-.046zm-1.65 0h-7.422a22.173 22.173 0 014.445-5.683c2.657-2.382 5.956-4.215 9.621-5.224-2.245 1.788-4.078 4.4-5.452 7.516-.458 1.054-.825 2.2-1.191 3.39zm23.917-6.69c-1.1-1.696-2.382-3.163-3.757-4.262 3.757 1.008 7.102 2.84 9.805 5.27 1.833 1.65 3.345 3.574 4.444 5.682h-7.56c-.733-2.52-1.695-4.766-2.932-6.69zM15.99 5.223c1.787-.779 3.665-1.42 5.681-1.97a22.304 22.304 0 00-4.627 3.299c-2.154 1.97-3.94 4.262-5.178 6.874H4.902c2.474-3.3 6.323-6.14 11.088-8.203zM1.604 22.5c0-2.612.778-5.132 2.199-7.47h16.86c-.504 2.109-.779 4.4-.824 6.737H8.247l4.17-4.17-1.054-1.054L5.406 22.5l5.957 5.957 1.053-1.054-4.169-4.17h11.592c.046 2.337.32 4.583.824 6.69H3.757c-1.375-2.336-2.153-4.811-2.153-7.423zm9.484 14.664c-2.566-1.65-4.674-3.574-6.277-5.637h6.964c1.237 2.612 3.024 4.95 5.223 6.92 1.374 1.237 2.932 2.383 4.627 3.3-3.94-1.1-7.513-2.658-10.537-4.583zM53.01 39.73a42.894 42.894 0 01-5.498 1.925 24.752 24.752 0 004.536-3.254 22.62 22.62 0 005.223-6.92h6.872c-2.474 3.346-6.322 6.187-11.133 8.25zm12.233-9.806H48.337c.458-2.108.733-4.354.824-6.69h11.5l-4.169 4.17 1.054 1.053 5.956-5.957-5.956-5.957-1.054 1.054 4.17 4.17H49.206c-.046-2.337-.32-4.628-.825-6.736h16.861c1.42 2.337 2.2 4.857 2.2 7.469-.047 2.612-.825 5.087-2.2 7.424z" fill="#fff"/></symbol><symbol fill="none" class="svg-sprite" id="globe" viewBox="0 0 27 18"><g clip-path="url(#clip0)"><path d="M13.5 17.364c7.158 0 12.96-3.807 12.96-8.505 0-4.697-5.802-8.505-12.96-8.505C6.342.354.54 4.162.54 8.86s5.802 8.505 12.96 8.505z"/><path d="M13.5 17.364c3.579 0 6.48-3.807 6.48-8.505 0-4.697-2.901-8.505-6.48-8.505-3.579 0-6.48 3.808-6.48 8.505 0 4.698 2.901 8.505 6.48 8.505z"/><path d="M3.456 14.317c2.376-.957 5.994-1.56 10.044-1.56 3.996 0 7.56.603 9.99 1.524m.054-10.879c-2.376.957-5.994 1.56-10.044 1.56-3.996 0-7.56-.603-9.99-1.525M.54 8.86h25.92M13.5.354v17.01"/></g><defs><clipPath id="clip0"><path fill="#fff" d="M0 0h27v17.719H0z"/></clipPath></defs></symbol><symbol class="svg-sprite" id="logo" viewBox="0 0 1263.3 159.6"><path d="M1233.6 45c0-8.7 6.5-15.1 14.8-15.1s14.8 6.4 14.8 15.1-6.5 15.1-14.8 15.1-14.8-6.4-14.8-15.1zm27.3 0c0-7.5-5.3-13-12.5-13s-12.5 5.5-12.5 13 5.3 13 12.5 13 12.5-5.5 12.5-13zm-18.3-8h7.4c3 0 5 1.8 5 4.4 0 1.9-.9 3.3-3 3.9v.1c1.6.5 2.2 1.4 2.4 3.5.2 2.4.3 3.7.7 3.9v.2h-2.7c-.4-.2-.5-1.6-.6-3.7-.1-2-1.1-2.9-3.2-2.9h-3.4V53h-2.7l.1-16zm2.8 7.3h4c1.9 0 2.9-1 2.9-2.5 0-1.6-.9-2.5-2.9-2.5h-4.1v5zM87.7 53v103.5H69.1v-16.8C50.7 168.3 0 168 0 117.8V53h18.6v64.8c0 41 50.5 30.6 50.5-1.5V53h18.6zm104.5 38.7v64.8h-18.6V91.7c0-41-51.1-30.6-51.1 1.5v63.3h-18.6V53h18.6v16.1c19.3-27.9 69.7-27.3 69.7 22.6zm11 32.5h18.6c0 11.8 11.4 18.4 24.8 18.4 13.9 0 24.8-6.4 24.8-18.4 0-23.8-67-1.9-67-43.2 0-18.6 18.6-29.6 40.3-29.6 21.9 0 39.9 10.3 39.9 29.6h-17.2c0-10.1-10.1-15.3-22.8-15.3S222 71 222 80.9c0 23.8 68.1.6 68.1 43.2 0 20.3-18.6 34.1-43.5 34.1-24.8.1-43.4-11.9-43.4-34zM348.7 143c19.5 0 29.8-11 33.7-20.3l14.3 6.8c-6 12.8-21.1 28.3-48 28.3-29.6 0-50.7-21.9-50.7-53.6 0-31 21.1-53 50.7-53 29.4 0 53.8 22.1 49.7 61.2H316c2.7 17.6 14.1 30.6 32.7 30.6zm33.5-46.4c-2.7-19.2-16.6-30.4-33.5-30.4-18.8 0-30.2 13-32.7 30.4h66.2zm77.2 46.4c19.4 0 29.8-11 33.7-20.3l14.3 6.8c-6 12.8-21.1 28.3-48 28.3-29.6 0-50.7-21.9-50.7-53.6 0-31 21.1-53 50.7-53 29.4 0 53.8 22.1 49.7 61.2h-82.4c2.7 17.6 14.1 30.6 32.7 30.6zm33.5-46.4c-2.7-19.2-16.6-30.4-33.5-30.4-18.8 0-30.2 13-32.7 30.4h66.2zm116.9-4.9v64.8h-18.6V91.7c0-41-51.1-30.6-51.1 1.5v63.3h-18.6V53h18.6v16.1c19.2-27.9 69.7-27.3 69.7 22.6zM726.6 136c-.8-23.2-74.1-21.9-76.6-53.2-2.9-31.5 36.4-41.2 82.2-25v31H731c-2.5-17.2-14.9-38.7-49.7-35.2-8.1 1-23.2 3.5-21.7 17 2.1 26.9 75.7 19.7 78 53.2.8 12-6.4 21.9-9.7 25-16.1 14.7-44.5 10.8-74.5 6.6l-.4-42.2 1.2.4c0 52.8 72.4 53.2 72.4 22.4zm33.7-5.8V65h-13.4l30.2-37v25h42.8l-10.3 12h-32.5l-.6 71.2c-.2 25.2 35 21.9 55.5-10.3h1.9c-25.1 45.7-73.6 39-73.6 4.3zm82.2-12.9l-.2-64.3h17.2v60.6c0 38.3 38.3 57.3 63.4 15.7v-4.5l.4-71.8H940v72c0 20.9 4.6 30 12.4 31.7-24.2 0-28.8-9.5-29.6-23.8-26.3 45.3-80.1 26-80.3-15.6zM1047 59.2l.6-44.1L1063.7 0v125c0 19.9 4.6 29.8 12.4 31.5-20.7 0-28.3-8.3-29.6-18.2-8.3 11.6-21.7 20.5-41.6 20.5-35.8 0-54.2-39.5-44.3-67.9 7.9-22.8 39-58 86.4-31.7zm-28.8 90.6c12.8 0 21.3-6 28.1-15.3v-1.7l.7-54.8c-17.2-19.5-48-30.8-65.8-8.1-20.1 22.8-4.2 79.9 37 79.9zm80.3-138.4c6 0 11 5 11 11s-5 10.8-11 10.8-10.8-4.8-10.8-10.8 4.8-11 10.8-11zm8.9 145.1h-18.6l.8-12.4V53h17v91l.8 12.5zm131.2-50.5c-.4 29.8-28.3 53.6-57.7 53.6-29 0-56.3-23.8-55.7-53.6.2-29.4 28.6-55 57.7-55 29.2-.1 56.1 25.6 55.7 55zm-19 0c-.8-36.2-21.3-51.7-41.4-51.7-20.3 0-37.2 18-34.6 51.7 2.3 31.7 21.3 49.5 41.4 49.5 20.5-.1 34.8-15.8 34.6-49.5z"/></symbol><symbol fill="none" class="svg-sprite" id="menu" viewBox="0 0 14 5"><circle cx="2.4" cy="2.4" r="2.4" fill="#212121"/><circle cx="11.6" cy="2.4" r="2.4" fill="#212121"/></symbol><symbol fill="none" class="svg-sprite" id="sound" viewBox="0 0 18 16"><path stroke="#212121" stroke-width="2" d="M1 7.2V16m12-8.8V16M5 0v16M17 0v16M9 4.8V16"/></symbol></svg>