<svg width="25" height="24" viewBox="0 0 25 24" fill="none" xmlns="http://www.w3.org/2000/svg">
<path d="M20.5 22H18.5V17H20.5M6.5 22H4.5V17H6.5M23.5 4V13C23.5 13.5304 23.2893 14.0391 22.9142 14.4142C22.5391 14.7893 22.0304 15 21.5 15H3.5C2.96957 15 2.46086 14.7893 2.08579 14.4142C1.71071 14.0391 1.5 13.5304 1.5 13V4C1.5 3.46957 1.71071 2.96086 2.08579 2.58579C2.46086 2.21071 2.96957 2 3.5 2H21.5C22.0304 2 22.5391 2.21071 22.9142 2.58579C23.2893 2.96086 23.5 3.46957 23.5 4ZM21.5 4H3.5V13H21.5M20.5 6H15.5V8H20.5M18.5 9H15.5V11H18.5M14.5 11H4.5L7.23 7.36L9.23 10.09L9.96 9.55L8.7 7.82L10.41 5.55L14.5 11Z" fill="#1E2242"/>
</svg>
