<svg width="25" height="24" viewBox="0 0 25 24" fill="none" xmlns="http://www.w3.org/2000/svg">
<path d="M21.45 11H23V13H21.45C21 17.17 17.67 20.5 13.5 20.95V22.5H11.5V20.95C7.33 20.5 4 17.17 3.55 13H2V11H3.55C4 6.83 7.33 3.5 11.5 3.05V1.5H13.5V3.05C17.67 3.5 21 6.83 21.45 11ZM5.57 11H7V13H5.57C5.78252 14.4975 6.47568 15.8854 7.54515 16.9549C8.61462 18.0243 10.0025 18.7175 11.5 18.93V17.5H13.5V18.93C14.9975 18.7175 16.3854 18.0243 17.4549 16.9549C18.5243 15.8854 19.2175 14.4975 19.43 13H18V11H19.43C19.2175 9.50254 18.5243 8.11462 17.4549 7.04515C16.3854 5.97568 14.9975 5.28252 13.5 5.07V6.5H11.5V5.07C10.0025 5.28252 8.61462 5.97568 7.54515 7.04515C6.47568 8.11462 5.78252 9.50254 5.57 11ZM16.5 16H8.5V15C8.5 13.67 11.17 13 12.5 13C13.83 13 16.5 13.67 16.5 15V16ZM12.5 8C13.0304 8 13.5391 8.21071 13.9142 8.58579C14.2893 8.96086 14.5 9.46957 14.5 10C14.5 10.5304 14.2893 11.0391 13.9142 11.4142C13.5391 11.7893 13.0304 12 12.5 12C11.9696 12 11.4609 11.7893 11.0858 11.4142C10.7107 11.0391 10.5 10.5304 10.5 10C10.5 9.46957 10.7107 8.96086 11.0858 8.58579C11.4609 8.21071 11.9696 8 12.5 8Z" fill="#1E2242" stroke="#1E2242" stroke-width="0.1"/>
</svg>
