<svg width="24" height="24" viewBox="0 0 24 24" fill="none" xmlns="http://www.w3.org/2000/svg">
<path d="M12 20C11.0667 20 10.1877 19.8543 9.363 19.563C8.53833 19.2717 7.784 18.859 7.1 18.325L5.7 19.7C5.51667 19.8833 5.28333 19.975 5 19.975C4.71667 19.975 4.48333 19.8833 4.3 19.7C4.11667 19.5167 4.025 19.2833 4.025 19C4.025 18.7167 4.11667 18.4833 4.3 18.3L5.675 16.925C5.14167 16.2417 4.72933 15.4833 4.438 14.65C4.14667 13.8167 4.00067 12.9333 4 12C4 9.76667 4.775 7.875 6.325 6.325C7.875 4.775 9.76667 4 12 4H20V12C20 14.2333 19.225 16.125 17.675 17.675C16.125 19.225 14.2333 20 12 20ZM12 18C13.6667 18 15.0833 17.4167 16.25 16.25C17.4167 15.0833 18 13.6667 18 12V6H12C10.3333 6 8.91667 6.58333 7.75 7.75C6.58333 8.91667 6 10.3333 6 12C6 12.65 6.1 13.271 6.3 13.863C6.5 14.455 6.775 14.9923 7.125 15.475L12.3 10.3C12.4833 10.1167 12.7167 10.025 13 10.025C13.2833 10.025 13.5167 10.1167 13.7 10.3C13.9 10.5 14 10.7377 14 11.013C14 11.2883 13.9 11.5257 13.7 11.725L8.525 16.9C9.00833 17.25 9.546 17.521 10.138 17.713C10.73 17.905 11.3507 18.0007 12 18Z" fill="#1E2242"/>
</svg>
