<svg width="24" height="24" viewBox="0 0 24 24" fill="none" xmlns="http://www.w3.org/2000/svg">
<path d="M19.31 18.9C19.75 18.21 20 17.38 20 16.5C20 14 18 12 15.5 12C13 12 11 14 11 16.5C11 19 13 21 15.5 21C16.37 21 17.19 20.75 17.88 20.32L21 23.39L22.39 22L19.31 18.9ZM15.5 19C14.837 19 14.2011 18.7366 13.7322 18.2678C13.2634 17.7989 13 17.163 13 16.5C13 15.837 13.2634 15.2011 13.7322 14.7322C14.2011 14.2634 14.837 14 15.5 14C16.163 14 16.7989 14.2634 17.2678 14.7322C17.7366 15.2011 18 15.837 18 16.5C18 17.163 17.7366 17.7989 17.2678 18.2678C16.7989 18.7366 16.163 19 15.5 19ZM9.59 19.2L3 14.07L4.62 12.81L9 16.22V16.5C9 17.46 9.22 18.38 9.59 19.2ZM9.5 14.04L3 9L12 2L21 9L18.66 10.82C17.9492 10.4316 17.1729 10.1774 16.37 10.07L17.74 9L12 4.53L6.26 9L10.53 12.32C10.1 12.84 9.74 13.42 9.5 14.04Z" fill="#1E2242"/>
</svg>
